<svg xmlns="http://www.w3.org/2000/svg" width="71.000000pt" height="71.000000pt" viewBox="0 0 71.000000 71.000000" preserveAspectRatio="xMidYMid meet"><g transform="translate(0.000000,71.000000) scale(0.100000,-0.100000)" fill="#000000" stroke="none"><path d="M243 671 c-94 -35 -157 -94 -198 -184 -95 -207 25 -435 251 -476 148 -27 303 50 372 186 87 170 9 387 -166 466 -68 30 -190 34 -259 8z m217 -147 c0 -8 -4 -12 -10 -9 -5 3 -10 2 -10 -4 0 -6 -15 -27 -32 -47 -39 -45 -120 -84 -168 -83 l-35 1 35 10 c88 25 121 42 155 80 27 29 34 43 25 48 -9 6 -7 10 6 18 22 12 34 7 34 -14z m88 -82 c8 -11 12 -56 12 -143 0 -121 -1 -129 -22 -143 -31 -22 -64 -20 -88 4 -18 18 -20 33 -20 136 0 63 5 124 11 135 21 39 80 45 107 11z m-136 -94 c14 -23 10 -174 -6 -187 -24 -20 -67 -23 -92 -6 -22 14 -24 22 -24 100 0 78 2 85 25 103 21 17 32 19 57 11 17 -5 35 -14 40 -21z m-152 -38 c15 -15 20 -33 20 -75 0 -42 -5 -60 -20 -75 -24 -24 -57 -26 -88 -4 -19 13 -22 24 -22 79 0 55 3 66 22 79 31 22 64 20 88 -4z"></path><path d="M462 438 c-22 -22 -9 -58 22 -58 1 0 2 16 2 35 0 37 -5 42 -24 23z"></path><path d="M505 410 c-1 -48 -7 -55 -35 -40 -19 10 -21 9 -18 -6 7 -37 83 -33 96 4 3 11 0 12 -17 3 -27 -15 -28 0 -1 17 25 16 26 38 1 52 -27 14 -26 15 -26 -30z"></path><path d="M440 331 c0 -14 36 -41 54 -41 26 0 56 19 56 35 0 12 -5 12 -26 3 -19 -9 -33 -9 -55 -1 -16 6 -29 8 -29 4z"></path><path d="M449 272 c13 -25 43 -33 72 -18 32 16 39 40 8 30 -30 -9 -38 -9 -67 0 -21 7 -23 6 -13 -12z"></path><path d="M453 227 c8 -12 24 -23 35 -25 27 -4 62 15 62 33 0 12 -5 12 -26 3 -19 -9 -33 -9 -56 0 -29 11 -29 11 -15 -11z"></path><path d="M451 178 c16 -29 99 -19 99 11 0 4 -24 6 -54 6 -48 0 -53 -2 -45 -17z"></path><path d="M316 344 c-12 -12 -13 -20 -6 -35 17 -31 35 -23 35 16 0 39 -6 43 -29 19z"></path><path d="M365 325 c0 -39 18 -47 35 -16 7 15 6 23 -6 35 -23 24 -29 20 -29 -19z"></path><path d="M300 281 c0 -28 74 -43 98 -19 20 20 14 28 -12 17 -18 -8 -33 -8 -55 -1 -17 6 -31 8 -31 3z"></path><path d="M303 216 c0 -42 13 -56 52 -56 39 0 52 14 52 57 0 29 -2 30 -24 20 -17 -8 -33 -8 -52 0 -26 10 -28 9 -28 -21z m87 -20 c-5 -5 -20 -8 -35 -8 -15 0 -30 3 -35 8 -5 5 10 9 35 9 25 0 40 -4 35 -9z"></path><path d="M172 298 c-19 -19 -14 -37 13 -50 35 -16 78 4 73 34 -5 34 -34 35 -33 2 0 -15 -6 -29 -14 -32 -10 -3 -13 3 -9 27 5 32 -8 41 -30 19z"></path><path d="M161 235 c5 -25 54 -43 76 -29 30 19 24 30 -12 26 -20 -2 -42 1 -51 9 -14 12 -16 11 -13 -6z"></path><path d="M160 189 c0 -30 92 -38 98 -9 2 12 -9 15 -48 15 -27 0 -50 -3 -50 -6z"></path></g></svg>