<?xml version="1.0" encoding="utf-8"?>
<!-- Generator: Adobe Illustrator 15.1.0, SVG Export Plug-In . SVG Version: 6.00 Build 0)  -->
<!DOCTYPE svg PUBLIC "-//W3C//DTD SVG 1.1//EN" "http://www.w3.org/Graphics/SVG/1.1/DTD/svg11.dtd">
<svg version="1.1" id="Layer_1" xmlns="http://www.w3.org/2000/svg" xmlns:xlink="http://www.w3.org/1999/xlink" x="0px" y="0px"
	 width="92.28px" height="72.205px" viewBox="0 0 92.28 72.205" enable-background="new 0 0 92.28 72.205" xml:space="preserve">
<g>
	<path fill="#999" d="M31.592,10.329c2.623,0,5.216,0.21,7.774,0.623c2.558,0.418,4.926,1.265,7.101,2.544
		c1.662-0.831,3.613-1.567,5.854-2.208c2.24-0.64,4.767-0.959,7.582-0.959c2.497,0,5.07,0.238,7.726,0.72
		c2.654,0.48,5.054,1.487,7.197,3.022c2.143,1.536,3.902,3.744,5.278,6.621c1.376,2.881,2.063,6.688,2.063,11.422v28.693
		c-1.664,0.32-3.167,0.527-4.513,0.624c-1.342,0.098-2.527,0.143-3.549,0.143c-1.088,0-2.303-0.045-3.646-0.143
		c-1.345-0.097-2.849-0.304-4.51-0.624V33.843c0-3.392-0.576-5.823-1.729-7.295c-1.149-1.473-3.039-2.209-5.662-2.209
		c-0.896,0-1.774,0.096-2.639,0.29c-0.864,0.19-1.455,0.353-1.775,0.479c0.576,2.24,0.863,4.798,0.863,7.678v28.022
		c-1.663,0.32-3.166,0.527-4.51,0.624c-1.344,0.098-2.527,0.143-3.551,0.143c-1.089,0-2.303-0.045-3.646-0.143
		c-1.343-0.097-2.849-0.304-4.51-0.624V33.843c0-3.392-0.545-5.823-1.633-7.295c-1.088-1.473-2.943-2.209-5.566-2.209
		c-0.703,0-1.455,0.065-2.254,0.193c-0.801,0.129-1.296,0.257-1.487,0.384v35.892c-1.664,0.32-3.168,0.527-4.511,0.624
		c-1.343,0.098-2.529,0.143-3.551,0.143c-1.088,0-2.303-0.045-3.648-0.143c-1.343-0.097-2.847-0.304-4.51-0.624v-47.12
		c2.239-0.769,4.928-1.518,8.062-2.256C22.826,10.697,26.794,10.329,31.592,10.329z"/>
</g>
</svg>
